<svg width="37" height="38" viewBox="0 0 37 38" fill="none" xmlns="http://www.w3.org/2000/svg">
<path d="M20.4702 16.1147C20.4702 7.36479 27.5633 0.271606 36.3132 0.271606V22.1568C36.3132 30.9067 29.22 37.9999 20.4702 37.9999V16.1147Z" fill="#4A3AFF"/>
<path d="M0.953674 8.88072C0.953674 4.1261 4.80805 0.271729 9.56266 0.271729C14.3173 0.271729 18.1716 4.1261 18.1716 8.88072V9.37776C18.1716 14.1324 14.3173 17.9868 9.56266 17.9868C4.80805 17.9868 0.953674 14.1324 0.953674 9.37776V8.88072Z" fill="#4CBFFF"/>
<path d="M0.953674 28.894C0.953674 24.1393 4.80805 20.285 9.56266 20.285C14.3173 20.285 18.1716 24.1393 18.1716 28.894V29.391C18.1716 34.1456 14.3173 38 9.56266 38C4.80805 38 0.953674 34.1456 0.953674 29.391V28.894Z" fill="#9328FF"/>
</svg>
